<svg xmlns="http://www.w3.org/2000/svg" viewBox="0 0 32 32" fill="none" stroke="#333" stroke-width="1.5" stroke-linecap="round" stroke-linejoin="round">
  <!-- Brain outline - left hemisphere -->
  <path d="M16 5c-1.5-1.5-4-2-6-1.5C7.5 4.2 6 6 5.5 8c-.7 2.5 0 5 1 6.5.5.8.5 1.5 0 2.5-.8 1.5-1 3.5-.5 5.5.5 2 2 3.5 4 4 1.5.5 3 .5 4.5-.5 1-.6 1.5-1.5 1.5-2.5"/>
  <!-- Brain outline - right hemisphere -->
  <path d="M16 5c1.5-1.5 4-2 6-1.5 2.5.7 4 2.5 4.5 4.5.7 2.5 0 5-1 6.5-.5.8-.5 1.5 0 2.5.8 1.5 1 3.5.5 5.5-.5 2-2 3.5-4 4-1.5.5-3 .5-4.5-.5-1-.6-1.5-1.5-1.5-2.5"/>
  <!-- Brain center line -->
  <path d="M16 5v18.5"/>
  <!-- Brain folds left -->
  <path d="M16 10c-2 0-4 .5-5 2"/>
  <path d="M16 15c-3 0-5.5 1-6.5 2.5"/>
  <!-- Brain folds right -->
  <path d="M16 10c2 0 4 .5 5 2"/>
  <path d="M16 15c3 0 5.5 1 6.5 2.5"/>
  <!-- Neural network nodes -->
  <circle cx="10" cy="9" r="1.2" fill="#333" stroke="none"/>
  <circle cx="13" cy="7" r="1" fill="#333" stroke="none"/>
  <circle cx="19" cy="7" r="1" fill="#333" stroke="none"/>
  <circle cx="22" cy="9" r="1.2" fill="#333" stroke="none"/>
  <circle cx="8" cy="14" r="1" fill="#333" stroke="none"/>
  <circle cx="12" cy="12" r="1.2" fill="#333" stroke="none"/>
  <circle cx="20" cy="12" r="1.2" fill="#333" stroke="none"/>
  <circle cx="24" cy="14" r="1" fill="#333" stroke="none"/>
  <circle cx="16" cy="11" r="1" fill="#333" stroke="none"/>
  <circle cx="10" cy="18" r="1" fill="#333" stroke="none"/>
  <circle cx="22" cy="18" r="1" fill="#333" stroke="none"/>
  <circle cx="14" cy="20" r="1" fill="#333" stroke="none"/>
  <circle cx="18" cy="20" r="1" fill="#333" stroke="none"/>
  <!-- Neural connections -->
  <line x1="10" y1="9" x2="13" y2="7" stroke="#333" stroke-width="0.8"/>
  <line x1="13" y1="7" x2="16" y2="11" stroke="#333" stroke-width="0.8"/>
  <line x1="19" y1="7" x2="16" y2="11" stroke="#333" stroke-width="0.8"/>
  <line x1="19" y1="7" x2="22" y2="9" stroke="#333" stroke-width="0.8"/>
  <line x1="10" y1="9" x2="12" y2="12" stroke="#333" stroke-width="0.8"/>
  <line x1="12" y1="12" x2="16" y2="11" stroke="#333" stroke-width="0.8"/>
  <line x1="16" y1="11" x2="20" y2="12" stroke="#333" stroke-width="0.8"/>
  <line x1="20" y1="12" x2="22" y2="9" stroke="#333" stroke-width="0.8"/>
  <line x1="8" y1="14" x2="12" y2="12" stroke="#333" stroke-width="0.8"/>
  <line x1="20" y1="12" x2="24" y2="14" stroke="#333" stroke-width="0.8"/>
  <line x1="8" y1="14" x2="10" y2="18" stroke="#333" stroke-width="0.8"/>
  <line x1="24" y1="14" x2="22" y2="18" stroke="#333" stroke-width="0.8"/>
  <line x1="12" y1="12" x2="14" y2="20" stroke="#333" stroke-width="0.8"/>
  <line x1="20" y1="12" x2="18" y2="20" stroke="#333" stroke-width="0.8"/>
  <line x1="10" y1="18" x2="14" y2="20" stroke="#333" stroke-width="0.8"/>
  <line x1="14" y1="20" x2="18" y2="20" stroke="#333" stroke-width="0.8"/>
  <line x1="18" y1="20" x2="22" y2="18" stroke="#333" stroke-width="0.8"/>
</svg>